<svg xmlns="http://www.w3.org/2000/svg" viewBox="0 0 96 73.88"><defs><style>.cls-1{fill:#0ea5e9;}.cls-2{fill:#39e27d;}</style></defs><g id="Layer_2" data-name="Layer 2"><g id="Layer_1-2" data-name="Layer 1"><path class="cls-1" d="M42,73.86H10.29a10.22,10.22,0,0,1-7.61-3.25c-.68-.7-.69-1.17,0-1.91q9.72-10.6,19.45-21.22c1.88-2.05,3.8-4.07,5.62-6.18.53-.62.83-.64,1.59-.1a23.76,23.76,0,0,0,5.4,2.88,21.26,21.26,0,0,0,6.89,1.13,21.11,21.11,0,0,0,12.46-3.55c.34-.22.66-.47,1-.71a.7.7,0,0,1,1,.15C64.3,50.27,72.68,59.27,81,68.35c1.24,1.36,1.19,1.55-.17,2.78a10.47,10.47,0,0,1-7.36,2.75Q57.73,73.83,42,73.86Z"/><path class="cls-1" d="M36.48,13H63.07c.74.06,1,.32,1,1.07a19.91,19.91,0,0,0,.18,3.54A16.67,16.67,0,0,0,67,24.46c.53.77.51.87-.2,1.49C63,29.28,59.35,32.82,55.46,36.07a27.57,27.57,0,0,1-5.7,4,18.46,18.46,0,0,1-19.87-2.8Q17.71,26.4,5.55,15.53c-.87-.78-.82-1,.24-1.52a11.47,11.47,0,0,1,4.86-1H36.48Z"/><path class="cls-1" d="M0,43.33V23.25A10.27,10.27,0,0,1,1.49,17.9c.42-.71.71-.75,1.32-.2Q9.7,23.87,16.59,30.05L25,37.54c.7.63.72.87.11,1.52-4.94,5.2-9.74,10.53-14.53,15.87-3,3.37-6.11,6.68-9.17,10-.23.25-.45.52-.7.76s-.37.15-.48-.12A4.11,4.11,0,0,1,0,64.16V43.33Z"/><path class="cls-2" d="M96,14.91A14.79,14.79,0,1,1,80.82,0,14.73,14.73,0,0,1,96,14.91Zm-25,.6a2.58,2.58,0,0,0,.73,1.75c1.57,1.6,3.13,3.21,4.76,4.75a2.67,2.67,0,0,0,3.82-.07c3.45-3.43,6.89-6.89,10.34-10.34a2.78,2.78,0,0,0,0-3.94,2.83,2.83,0,0,0-4,0c-1,1-2.06,2-3.09,3.07-1.52,1.53-3,3.08-4.57,4.61-.52.53-.76.52-1.25,0a21.43,21.43,0,0,0-2.41-2.26A2.75,2.75,0,0,0,71,15.51Z"/><path class="cls-1" d="M83.58,66,82,64.34,60.54,40.83C60,40.26,59.48,39.7,59,39.12s-.58-1,.07-1.62l10.18-9.07c.57-.51.87-.52,1.48-.05a16.72,16.72,0,0,0,11.93,3.56c1.21-.09,1.4.1,1.4,1.29q0,15.27,0,30.54A5.07,5.07,0,0,1,83.58,66Z"/><path d="M36.06,23.25v-.09H37v.09Zm.7,1.48a.37.37,0,0,1-.3-.11.39.39,0,0,1-.1-.29V22.82h.1v1.5a.32.32,0,0,0,.08.24.28.28,0,0,0,.23.08.37.37,0,0,0,.25-.09l0,.07a.42.42,0,0,1-.14.09Z"/></g></g></svg>